<?xml version="1.0" standalone="no"?>
<!DOCTYPE svg PUBLIC "-//W3C//DTD SVG 20010904//EN"
 "http://www.w3.org/TR/2001/REC-SVG-20010904/DTD/svg10.dtd">
<svg version="1.0" xmlns="http://www.w3.org/2000/svg"
 width="954.000000pt" height="1110.000000pt" viewBox="0 0 954.000000 1110.000000"
 preserveAspectRatio="xMidYMid meet">

<g transform="translate(0.000000,1110.000000) scale(0.100000,-0.100000)"
fill="#000000" stroke="none">
<path d="M2470 9594 c-1262 -729 -2305 -1332 -2318 -1340 l-22 -14 0 -2670 0
-2670 37 -24 c108 -69 4590 -2650 4603 -2650 13 0 4497 2582 4603 2650 l37 24
0 2670 0 2670 -37 24 c-21 13 -708 411 -1528 884 -819 472 -1533 884 -1585
914 -52 30 -404 233 -782 451 -378 219 -693 399 -700 402 -7 2 -1046 -592
-2308 -1321z m4239 -610 c1054 -608 1933 -1117 1954 -1130 l37 -24 0 -2259 0
-2260 -27 -19 c-67 -46 -3889 -2246 -3903 -2246 -13 0 -3785 2171 -3892 2240
l-38 24 0 2260 0 2260 23 15 c125 81 3906 2253 3916 2250 8 -3 877 -503 1930
-1111z"/>
<path d="M3590 5765 c0 -620 2 -635 101 -734 84 -83 186 -116 338 -109 83 4
106 9 166 38 131 63 226 188 255 338 18 89 8 242 -20 315 -49 128 -153 227
-279 263 -76 23 -229 15 -293 -13 l-48 -22 0 220 0 219 -110 0 -110 0 0 -515z
m520 -102 c77 -31 120 -101 128 -206 9 -133 -50 -262 -140 -306 -74 -35 -183
-25 -237 23 -44 39 -51 73 -51 260 l0 175 29 20 c81 58 182 71 271 34z"/>
<path d="M6982 5738 c3 -538 3 -544 26 -599 13 -33 42 -76 69 -103 86 -88 187
-121 342 -114 83 4 106 9 166 38 128 61 224 186 254 328 16 75 14 208 -4 277
-34 130 -117 234 -230 287 -61 28 -82 33 -170 36 -82 3 -111 0 -162 -17 -34
-12 -65 -21 -68 -21 -3 0 -5 97 -5 215 l0 215 -110 0 -111 0 3 -542z m518 -75
c45 -18 77 -48 103 -98 19 -34 22 -56 21 -140 -1 -108 -10 -139 -62 -211 -90
-124 -315 -108 -352 25 -5 20 -10 111 -10 203 l0 167 29 20 c81 58 182 71 271
34z"/>
<path d="M1998 5690 c-3 -391 -5 -449 -20 -475 -42 -76 -110 -104 -206 -84
-48 10 -64 20 -114 69 l-58 58 0 -132 0 -132 43 -27 c66 -44 137 -60 237 -55
152 7 250 71 312 203 41 90 47 165 48 616 l0 405 -119 0 -120 -1 -3 -445z"/>
<path d="M4690 5534 l0 -603 116 -3 c64 -2 118 -1 120 1 2 2 4 118 4 258 l0
253 210 0 210 0 0 -255 0 -255 120 0 120 0 0 603 0 603 -120 1 -120 1 0 -239
0 -239 -210 0 -210 0 0 239 0 238 -120 0 -120 -1 0 -602z"/>
<path d="M2770 5871 c-116 -37 -187 -89 -249 -182 -102 -153 -114 -376 -29
-543 27 -52 103 -132 156 -163 146 -86 378 -86 525 0 59 35 139 124 172 191
91 187 61 435 -72 577 -91 98 -197 139 -351 138 -64 0 -116 -6 -152 -18z m231
-196 c99 -35 161 -137 162 -265 1 -100 -24 -171 -77 -224 -92 -93 -252 -88
-350 10 -140 140 -91 417 85 480 48 17 129 17 180 -1z"/>
<path d="M5887 5868 c4 -7 10 -168 13 -358 6 -332 7 -347 29 -404 31 -77 99
-147 166 -169 101 -35 232 -17 323 44 l42 28 0 -39 0 -40 115 0 115 0 -2 473
-3 472 -110 0 -110 0 -3 -335 c-2 -326 -3 -335 -24 -357 -33 -36 -99 -56 -163
-51 -66 6 -102 29 -130 84 -18 36 -20 62 -23 352 l-4 312 -119 0 c-94 0 -118
-3 -112 -12z"/>
</g>
</svg>
